<?xml version="1.0" encoding="UTF-8"?><svg id="Camada_2" xmlns="http://www.w3.org/2000/svg" viewBox="0 0 256 256"><defs><style>.cls-1{fill:#fff;}</style></defs><g id="Camada_1-2"><g><circle class="cls-1" cx="128" cy="128" r="128"/><path d="M178.82,61.54c-14.14-4.55-31.74-7.23-50.81-7.23s-36.67,2.68-50.82,7.23C39.57,73.63,13.73,98.74,13.73,127.76c0,40.83,51.16,73.93,114.28,73.93s114.27-33.11,114.27-73.93c0-29.02-25.85-54.13-63.46-66.23Zm-50.81,108.37c-9.42,0-17.11-18.52-17.56-41.79,5.66,.51,11.54,.78,17.56,.78s11.89-.27,17.56-.78c-.45,23.27-8.14,41.79-17.56,41.79Zm-16.37-60.01c2.57-16.33,8.93-27.9,16.37-27.9s13.8,11.57,16.37,27.9c-5.23,.47-10.71,.73-16.37,.73s-11.14-.26-16.37-.73Zm42.75-1.23c-3.82-25.63-14.18-44.02-26.37-44.02s-22.56,18.38-26.38,44.02c-23.21-3.62-39.44-11.87-39.44-21.48,0-12.95,29.47-23.44,65.82-23.44s65.82,10.49,65.82,23.44c0,9.61-16.23,17.86-39.44,21.48ZM30.4,125.06c0-12.52,4.82-24.25,13.22-34.34-.1,.7-.15,1.4-.15,2.11,0,15.74,23.65,29.13,56.62,34.05-.02,1.19-.04,2.38-.04,3.58,0,29.27,8.12,54.07,19.35,62.62-49.87-3.05-89-32.34-89-68.03Zm106.21,68.03c11.22-8.55,19.34-33.34,19.34-62.62,0-1.2-.01-2.39-.04-3.58,32.96-4.92,56.62-18.3,56.62-34.05,0-.71-.05-1.41-.15-2.11,8.4,10.09,13.22,21.82,13.22,34.34,0,35.69-39.12,64.98-88.99,68.03Z"/></g></g></svg>